<svg width="440" height="180" viewBox="0 0 440 180" fill="none" xmlns="http://www.w3.org/2000/svg">
<rect width="440" height="180" fill="white"/>
<path d="M89 101.256C89.1973 100.496 89.4192 99.7356 89.5918 98.9754C92.0824 88.2097 100.195 80.8037 111.242 79.1852C117.555 78.2533 123.744 78.94 129.934 80.6075C127.69 92.6239 123.991 104.346 124.262 116.779C120.736 116.779 117.284 116.779 113.634 116.779C113.807 114.376 114.004 111.973 114.177 109.496C112.894 110.992 111.809 112.512 110.478 113.787C106.163 118.03 99.0361 118.839 94.2523 115.725C91.4412 113.861 89.9864 111.114 89.2712 107.902C89.2219 107.657 89.074 107.411 89 107.166C89 105.18 89 103.218 89 101.256ZM117.062 87.5476C114.744 87.0816 112.598 87.0571 110.502 87.8173C104.56 89.9999 99.8499 98.5585 101.181 104.738C101.971 108.515 105.127 109.962 108.53 108.123C110.798 106.896 112.155 104.861 113.19 102.605C115.336 97.8228 115.706 92.5994 117.062 87.5476Z" fill="#2B2B2B"/>
<path d="M176.465 63C180.361 63 184.109 63 188.005 63C185.86 73.7166 183.739 84.3352 181.619 94.9537C181.693 94.9782 181.742 95.0027 181.816 95.0518C183.468 93.139 185.095 91.2262 186.748 89.3379C189.411 86.3215 192.074 83.3297 194.786 80.3624C195.058 80.0681 195.551 79.8229 195.921 79.8229C200.187 79.7984 204.477 79.7984 208.743 79.7984C208.867 79.7984 208.965 79.8474 209.261 79.9455C203.738 85.0218 198.288 90.0245 192.814 95.0518C196.439 102.286 200.039 109.496 203.688 116.804C199.373 116.804 195.206 116.804 190.94 116.804C188.671 111.629 186.378 106.406 184.035 101.035C182.605 102.335 181.15 103.488 179.942 104.837C179.449 105.376 179.449 106.357 179.276 107.142C178.586 110.379 177.944 113.591 177.279 116.828C173.407 116.828 169.634 116.828 165.738 116.828C169.314 98.8529 172.889 80.9264 176.465 63Z" fill="#2C2C2C"/>
<path d="M286.024 79.9701C289.279 79.9701 292.657 79.9701 296.159 79.9701C295.912 81.8339 295.666 83.6486 295.394 85.8066C295.888 85.3652 296.208 85.1445 296.479 84.8502C299.858 81.0736 304.074 79.1118 309.154 79.0627C315.639 79.0137 319.461 82.7167 319.239 89.1663C319.141 92.1336 318.623 95.1009 318.08 98.0191C316.995 103.954 315.763 109.864 314.579 115.774C314.505 116.117 314.382 116.461 314.283 116.853C310.461 116.853 306.688 116.853 302.817 116.853C303.433 113.665 304.05 110.501 304.666 107.362C305.48 103.12 306.318 98.8774 307.083 94.6104C307.28 93.5804 307.28 92.5014 307.231 91.4469C307.083 88.7003 305.085 87.2535 302.397 87.9156C299.463 88.6513 297.737 90.8093 296.282 93.2371C294.482 96.278 293.841 99.6867 293.2 103.095C292.312 107.706 291.4 112.292 290.487 116.926C286.616 116.926 282.818 116.926 278.824 116.926C281.216 104.64 283.607 92.3788 286.024 79.9701Z" fill="#2B2B2B"/>
<path d="M252.044 102.237C251.995 105.376 253.721 107.608 256.705 108.564C259.614 109.471 262.573 109.275 265.483 108.711C267.555 108.319 269.577 107.632 271.697 107.044C271.993 109.52 272.289 112.095 272.585 114.768C270.267 115.945 267.85 116.608 265.335 117.024C260.823 117.809 256.285 118.153 251.773 116.951C245.633 115.308 241.761 111.041 241.194 104.738C240.331 95.0517 243.833 87.1798 252.241 82.0299C258.283 78.3269 264.891 77.5422 271.525 80.6076C275.174 82.2751 277.122 85.316 277.344 89.3378C277.566 93.4822 275.939 96.7438 272.363 98.9264C268.787 101.133 264.743 101.894 260.625 102.188C257.79 102.409 254.905 102.237 252.044 102.237ZM253.228 94.5858C255.842 94.3896 258.357 94.316 260.823 93.9727C262.253 93.7765 263.732 93.3106 264.99 92.6239C267.234 91.3978 267.135 88.4305 264.891 87.3024C264.25 86.9836 263.486 86.8119 262.771 86.7874C258.233 86.5912 254.387 89.6566 253.228 94.5858Z" fill="#2B2B2B"/>
<path d="M329.744 88.0381C328.018 88.0381 326.489 88.0381 324.812 88.0381C325.33 85.2424 325.823 82.5694 326.341 79.7983C328.018 79.7983 329.645 79.7983 331.396 79.7983C331.939 77.1498 332.457 74.5749 332.974 71.9264C336.87 71.068 340.742 70.2097 344.811 69.3269C344.096 72.8582 343.405 76.2424 342.69 79.7247C345.427 79.7247 348.09 79.7247 350.975 79.7247C350.408 82.5449 349.866 85.2424 349.323 88.0381C346.561 88.0381 343.824 88.0381 341.013 88.0381C340.347 91.2751 339.657 94.4141 339.04 97.5776C338.572 100.03 338.054 102.458 337.808 104.935C337.561 107.46 338.597 108.417 341.186 108.417C342.172 108.417 343.134 108.417 344.194 108.417C343.75 111.237 343.282 114.008 342.813 116.975C341.728 117.172 340.619 117.466 339.484 117.564C336.649 117.834 333.837 117.956 331.076 117C327.771 115.872 325.996 113.395 325.897 109.913C325.774 105.597 327.007 101.526 327.796 97.3569C328.413 94.316 329.078 91.2997 329.744 88.0381Z" fill="#2B2B2B"/>
<path d="M240.257 80.0926C239.32 82.8637 238.432 85.5367 237.569 88.0871C235.424 87.8909 233.402 87.4986 231.38 87.5721C223.07 87.94 218.336 95.3705 219.075 102.212C219.544 106.455 222.626 108.883 226.991 108.711C228.224 108.662 229.457 108.539 230.665 108.319C231.873 108.098 233.032 107.706 234.413 107.338C234.413 108.711 234.413 110.035 234.413 111.36C234.413 112.708 234.413 114.057 234.413 115.749C232.564 116.191 230.714 116.755 228.816 117.049C224.476 117.711 220.136 117.809 215.944 116.166C210.198 113.91 207.19 109.569 206.894 103.512C206.327 91.643 214.242 81.7602 226.004 79.4305C230.369 78.5476 234.709 78.425 239.024 79.6512C239.419 79.7738 239.789 79.9209 240.257 80.0926Z" fill="#2B2B2B"/>
<path d="M129.662 116.166C130.673 113.321 131.61 110.648 132.498 108.196C134.841 108.343 137.035 108.687 139.23 108.613C145.592 108.368 150.894 103.242 151.411 96.94C151.51 95.6647 151.535 94.316 151.288 93.0653C150.672 90.098 148.206 88.0135 145.123 87.7928C143.57 87.6947 141.992 87.7192 140.463 87.9154C138.983 88.1116 137.529 88.5776 135.827 88.9699C135.827 86.3705 135.827 83.771 135.827 80.8282C137.504 80.4359 139.427 79.8718 141.4 79.5776C145.148 79.038 148.921 78.9154 152.644 79.8718C160.954 82.0053 164.456 88.553 163.642 96.4495C162.533 107.191 154.198 114.989 143.422 116.926C139.427 117.662 135.433 117.687 131.438 116.706C130.871 116.583 130.328 116.387 129.662 116.166Z" fill="#2E9EEF"/>
</svg>
