<?xml version="1.0" encoding="UTF-8"?>
<svg width="480px" height="147px" viewBox="0 0 480 147" version="1.1" xmlns="http://www.w3.org/2000/svg" xmlns:xlink="http://www.w3.org/1999/xlink">
    <title>Group</title>
    <g id="Symbols" stroke="none" stroke-width="1" fill="none" fill-rule="evenodd">
        <g id="Group" fill="#000000" transform="translate(0.000000, 0.000000)">
            <path d="M195.482227,89.851 C191.774227,92.631 188.561227,94.654 184.721227,94.654 C178.822227,94.654 175.096227,90.323 175.096227,83.439 C175.096227,76.027 178.538227,72.981 184.098227,70.863 L195.482227,66.231 L195.482227,89.851 Z M175.492227,68.745 C165.564227,72.453 157.358227,77.085 157.358227,88.469 C157.358227,99.059 164.506227,105.545 175.228227,105.545 C184.760227,105.545 191.642227,99.721 195.878227,94.161 C197.202227,101.443 201.968227,105.811 209.116227,105.811 C215.338227,105.811 220.368227,103.295 224.206227,98.795 L223.412227,95.883 C221.956227,96.545 220.104227,97.207 218.118227,97.207 C214.676227,97.207 213.750227,94.293 213.750227,89.793 L213.750227,54.715 C213.750227,39.227 204.482227,33.005 187.538227,33.005 C172.846227,33.005 161.460227,38.697 161.460227,49.683 C161.460227,59.353 168.813227,61.795 178.411227,58.15 C175.185227,48.609 176.689227,37.241 186.082227,37.241 C192.966227,37.241 195.482227,42.667 195.482227,50.213 L195.482227,61.465 L175.492227,68.745 L175.492227,68.745 Z" id="Fill-1"></path>
            <path d="M365.924227,37.903 C374.528227,37.903 377.838227,46.375 377.838227,58.817 L351.362227,58.817 C352.422227,46.639 357.188227,37.903 365.924227,37.903 Z M366.586227,105.811 C381.810227,105.811 391.472227,96.809 394.914227,83.705 L392.796227,82.513 C388.030227,89.397 382.074227,93.235 373.072227,93.235 C360.100227,93.235 350.568227,82.247 351.098227,63.715 L394.252227,63.715 L394.252227,60.671 C394.252227,44.785 384.986227,33.005 367.248227,33.005 C349.112227,33.005 334.552227,48.625 334.552227,71.261 C334.552227,91.647 347.392227,105.811 366.586227,105.811 L366.586227,105.811 Z" id="Fill-2"></path>
            <path d="M330.912227,100.119 C324.822227,99.721 322.704227,98.449 322.704227,91.132 L322.704227,0 L296.362227,7.191 L296.362227,9.971 L304.304227,14.075 L304.304227,91.132 C304.304227,98.449 302.186227,99.721 296.096227,100.119 L296.096227,104.487 L330.912227,104.487 L330.912227,100.119" id="Fill-3"></path>
            <path d="M290.378227,79.203 L286.276227,79.203 C280.584227,94.161 274.668227,99.325 262.527227,99.325 L251.460227,99.325 L289.320227,37.903 L289.320227,34.593 L233.534227,34.593 L231.738227,58.949 L235.972227,58.949 C241.136227,45.183 244.027227,39.755 255.301227,39.755 L268.272227,39.755 L229.486227,101.443 L229.486227,104.487 L287.864227,104.487 L290.378227,79.203" id="Fill-4"></path>
            <path d="M121.868227,37.903 C130.472227,37.903 133.782227,46.375 133.782227,58.817 L107.308227,58.817 C108.366227,46.639 113.132227,37.903 121.868227,37.903 Z M122.530227,105.811 C137.754227,105.811 147.416227,96.809 150.858227,83.705 L148.740227,82.513 C143.976227,89.397 138.018227,93.235 129.016227,93.235 C116.044227,93.235 106.512227,82.247 107.042227,63.715 L150.196227,63.715 L150.196227,60.671 C150.196227,44.785 140.930227,33.005 123.192227,33.005 C105.056227,33.005 90.4962271,48.625 90.4962271,71.261 C90.4962271,91.647 103.336227,105.811 122.530227,105.811 L122.530227,105.811 Z" id="Fill-5"></path>
            <path d="M34.8602271,48.757 C37.9042271,45.977 42.1402271,44.125 46.5102271,44.125 C58.9522271,44.125 64.9102271,55.375 64.9102271,71.657 C64.9102271,87.939 58.1582271,100.913 46.9062271,100.913 C38.8322271,100.913 34.8602271,95.751 34.8602271,85.689 L34.8602271,48.757 Z M16.4602271,96.545 C24.0062271,102.765 35.3902271,105.811 47.0382271,105.811 C67.4242271,105.811 83.4422271,91.117 83.4422271,65.171 C83.4422271,44.785 73.2482271,33.005 57.1002271,33.005 C48.1082271,33.005 39.7112271,37.769 34.8602271,43.209 L34.8602271,0 L8.51822712,7.191 L8.51822712,9.971 L16.4602271,14.075 L16.4602271,96.545 L16.4602271,96.545 Z" id="Fill-6"></path>
            <path d="M404.156227,45.723 L431.620227,104.422 C425.166227,122.731 410.948227,118.676 406.072227,114.172 C399.225227,118.863 401.238227,128.27 412.738227,128.27 C423.255227,128.27 431.123227,119.572 436.350227,107.4 L461.507227,46.765 C464.049227,41.13 468.017227,39.805 471.880227,38.757 L471.880227,34.329 L446.844227,34.329 L446.844227,38.757 C454.759227,39.624 456.390227,43.352 453.824227,49.195 L440.094227,84.577 L424.208227,46.544 C421.898227,39.977 426.073227,38.779 431.282227,38.757 L431.282227,34.329 L395.276227,34.329 L395.276227,38.757 C400.226227,40.063 402.423227,41.881 404.156227,45.723" id="Fill-7"></path>
            <path d="M476.881227,139.327 C322.783227,123.085 167.702227,120.902 13.5602271,132.777 C2.22122712,133.653 -1.57677288,141.576 0.574227125,146.819 C159.970227,130.364 320.428227,128.953 479.822227,142.586 C480.307227,140.764 479.660227,139.62 476.881227,139.327" id="Fill-8"></path>
        </g>
    </g>
</svg>